<svg width="68" height="68" viewBox="0 0 68 68" fill="none" xmlns="http://www.w3.org/2000/svg">
<rect width="68" height="68" rx="34" fill="url(#paint0_linear_116_11329)" fill-opacity="0.05"/>
<rect x="8" y="8" width="52" height="52" rx="26" fill="url(#paint1_linear_116_11329)" fill-opacity="0.1"/>
<rect x="8.5" y="8.5" width="51" height="51" rx="25.5" stroke="url(#paint2_linear_116_11329)" stroke-opacity="0.2"/>
<path fill-rule="evenodd" clip-rule="evenodd" d="M34 24.25C28.6152 24.25 24.25 28.6152 24.25 34C24.25 39.3848 28.6152 43.75 34 43.75C39.3848 43.75 43.75 39.3848 43.75 34C43.75 28.6152 39.3848 24.25 34 24.25ZM31 29.5C30.5858 29.5 30.25 29.8358 30.25 30.25C30.25 30.6642 30.5858 31 31 31H32.5C33.4797 31 34.3131 31.6261 34.622 32.5H31C30.5858 32.5 30.25 32.8358 30.25 33.25C30.25 33.6642 30.5858 34 31 34H34.622C34.3131 34.8739 33.4797 35.5 32.5 35.5H31C30.6967 35.5 30.4232 35.6827 30.3071 35.963C30.191 36.2432 30.2552 36.5658 30.4697 36.7803L33.4697 39.7803C33.7626 40.0732 34.2374 40.0732 34.5303 39.7803C34.8232 39.4874 34.8232 39.0126 34.5303 38.7197L32.7989 36.9883C34.4785 36.8558 35.8468 35.6168 36.175 34H37C37.4142 34 37.75 33.6642 37.75 33.25C37.75 32.8358 37.4142 32.5 37 32.5H36.175C36.0625 31.9458 35.8278 31.4361 35.5003 31H37C37.4142 31 37.75 30.6642 37.75 30.25C37.75 29.8358 37.4142 29.5 37 29.5H31Z" fill="#CAFF33"/>
<defs>
<linearGradient id="paint0_linear_116_11329" x1="34" y1="0" x2="34" y2="68" gradientUnits="userSpaceOnUse">
<stop stop-color="#CAFF33"/>
<stop offset="1" stop-color="#CAFF33" stop-opacity="0"/>
</linearGradient>
<linearGradient id="paint1_linear_116_11329" x1="34" y1="-26.4324" x2="34" y2="142.216" gradientUnits="userSpaceOnUse">
<stop stop-color="#CAFF33"/>
<stop offset="0.467671" stop-color="#CAFF33" stop-opacity="0"/>
</linearGradient>
<linearGradient id="paint2_linear_116_11329" x1="34" y1="-82.2973" x2="34" y2="107.081" gradientUnits="userSpaceOnUse">
<stop stop-color="#CAFF33"/>
<stop offset="0.716291" stop-color="#CAFF33" stop-opacity="0"/>
</linearGradient>
</defs>
</svg>
