<svg width="68" height="68" viewBox="0 0 68 68" fill="none" xmlns="http://www.w3.org/2000/svg">
<rect width="68" height="68" rx="34" fill="url(#paint0_linear_116_11321)" fill-opacity="0.05"/>
<rect x="8" y="8" width="52" height="52" rx="26" fill="url(#paint1_linear_116_11321)" fill-opacity="0.1"/>
<rect x="8.5" y="8.5" width="51" height="51" rx="25.5" stroke="url(#paint2_linear_116_11321)" stroke-opacity="0.2"/>
<path fill-rule="evenodd" clip-rule="evenodd" d="M31 26.5C31.3349 26.5 31.6291 26.722 31.7211 27.044L32.5343 29.8902C32.8903 31.1359 33.8641 32.1097 35.1099 32.4657L37.956 33.2789C38.278 33.3709 38.5 33.6651 38.5 34C38.5 34.3349 38.278 34.6291 37.956 34.7211L35.1098 35.5343C33.8641 35.8903 32.8903 36.8641 32.5343 38.1099L31.7211 40.956C31.6291 41.278 31.3349 41.5 31 41.5C30.6651 41.5 30.3709 41.278 30.2789 40.956L29.4657 38.1099C29.1097 36.8641 28.1359 35.8903 26.8901 35.5343L24.044 34.7211C23.722 34.6291 23.5 34.3349 23.5 34C23.5 33.6651 23.722 33.3709 24.044 33.2789L26.8901 32.4657C28.1359 32.1097 29.1097 31.1359 29.4657 29.8901L30.2789 27.044C30.3709 26.722 30.6651 26.5 31 26.5Z" fill="#CAFF33"/>
<path fill-rule="evenodd" clip-rule="evenodd" d="M40 23.5C40.3442 23.5 40.6441 23.7342 40.7276 24.0681L40.9865 25.1036C41.2216 26.0441 41.9559 26.7784 42.8964 27.0135L43.9319 27.2724C44.2658 27.3559 44.5 27.6558 44.5 28C44.5 28.3442 44.2658 28.6441 43.9319 28.7276L42.8964 28.9865C41.9559 29.2216 41.2216 29.9559 40.9865 30.8964L40.7276 31.9319C40.6441 32.2658 40.3442 32.5 40 32.5C39.6558 32.5 39.3559 32.2658 39.2724 31.9319L39.0135 30.8964C38.7784 29.9559 38.0441 29.2216 37.1036 28.9865L36.0681 28.7276C35.7342 28.6441 35.5 28.3442 35.5 28C35.5 27.6558 35.7342 27.3559 36.0681 27.2724L37.1036 27.0135C38.0441 26.7784 38.7784 26.0441 39.0135 25.1036L39.2724 24.0681C39.3559 23.7342 39.6558 23.5 40 23.5Z" fill="#CAFF33"/>
<path fill-rule="evenodd" clip-rule="evenodd" d="M38.5 37C38.8228 37 39.1094 37.2066 39.2115 37.5128L39.6058 38.6956C39.7551 39.1435 40.1065 39.4949 40.5544 39.6442L41.7372 40.0385C42.0434 40.1406 42.25 40.4272 42.25 40.75C42.25 41.0728 42.0434 41.3594 41.7372 41.4615L40.5544 41.8558C40.1065 42.0051 39.7551 42.3565 39.6058 42.8044L39.2115 43.9872C39.1094 44.2934 38.8228 44.5 38.5 44.5C38.1772 44.5 37.8906 44.2934 37.7885 43.9872L37.3942 42.8044C37.2449 42.3565 36.8935 42.0051 36.4456 41.8558L35.2628 41.4615C34.9566 41.3594 34.75 41.0728 34.75 40.75C34.75 40.4272 34.9566 40.1406 35.2628 40.0385L36.4456 39.6442C36.8935 39.4949 37.2449 39.1435 37.3942 38.6956L37.7885 37.5128C37.8906 37.2066 38.1772 37 38.5 37Z" fill="#CAFF33"/>
<defs>
<linearGradient id="paint0_linear_116_11321" x1="34" y1="0" x2="34" y2="68" gradientUnits="userSpaceOnUse">
<stop stop-color="#CAFF33"/>
<stop offset="1" stop-color="#CAFF33" stop-opacity="0"/>
</linearGradient>
<linearGradient id="paint1_linear_116_11321" x1="34" y1="-26.4324" x2="34" y2="142.216" gradientUnits="userSpaceOnUse">
<stop stop-color="#CAFF33"/>
<stop offset="0.467671" stop-color="#CAFF33" stop-opacity="0"/>
</linearGradient>
<linearGradient id="paint2_linear_116_11321" x1="34" y1="-82.2973" x2="34" y2="107.081" gradientUnits="userSpaceOnUse">
<stop stop-color="#CAFF33"/>
<stop offset="0.716291" stop-color="#CAFF33" stop-opacity="0"/>
</linearGradient>
</defs>
</svg>
