<svg width="44" height="44" viewBox="0 0 44 44" fill="none" xmlns="http://www.w3.org/2000/svg">
<path d="M15.7305 35.5376C15.7304 36.3659 15.0588 37.0375 14.2305 37.0376H5.0332C4.20481 37.0376 3.53326 36.366 3.5332 35.5376V28.3921C3.5332 25.988 3.97241 23.4977 4.84277 20.9243L4.84375 20.9214C5.73888 18.3256 6.94996 15.8784 8.47656 13.5806L8.47754 13.5796C9.87418 11.4887 11.4235 9.68629 13.1279 8.17725C13.6358 7.72758 14.3731 7.69852 14.9219 8.06396L20.0137 11.4565C20.6983 11.9127 20.8805 12.8264 20.457 13.5151C19.1722 15.6051 18.0768 17.7764 17.1719 20.0298C16.1875 22.5184 15.7051 25.2758 15.7305 28.3071V35.5376ZM35.4424 35.5376C35.4423 36.3659 34.7706 37.0374 33.9424 37.0376H24.7451C23.9167 37.0376 23.2452 36.366 23.2451 35.5376V28.3921C23.2451 25.988 23.6843 23.4978 24.5547 20.9243L24.5557 20.9214C25.4508 18.3256 26.6619 15.8784 28.1885 13.5806L28.1895 13.5796C29.5861 11.4887 31.1354 9.68629 32.8398 8.17725C33.3478 7.72762 34.0851 7.69843 34.6338 8.06396L39.7256 11.4565C40.4102 11.9127 40.5924 12.8264 40.1689 13.5151C38.8841 15.6051 37.7887 17.7764 36.8838 20.0298C35.8994 22.5184 35.417 25.2758 35.4424 28.3071V35.5376Z" fill="url(#paint0_linear_113_4985)" stroke="#CAFF33"/>
<defs>
<linearGradient id="paint0_linear_113_4985" x1="22.1508" y1="8.06689" x2="22.1508" y2="36.5375" gradientUnits="userSpaceOnUse">
<stop stop-color="#CAFF33"/>
<stop offset="1" stop-color="#191919"/>
</linearGradient>
</defs>
</svg>
